<?xml version="1.0" encoding="utf-8"?><svg xmlns="http://www.w3.org/2000/svg" xmlns:xlink="http://www.w3.org/1999/xlink" width="1395" height="673" preserveAspectRatio="xMidYMid" viewBox="0 0 1395 673" style="z-index:1;margin-right:-2px;display:block;background-repeat-y:initial;background-repeat-x:initial;background-color:rgb(255, 255, 255);animation-play-state:paused" ><g transform="" style="animation-play-state:paused" ><g transform="translate(1083.2931847924308,37.248131053934344) scale(100)" opacity="0.6799999999999999" style="transform:matrix(100, 0, 0, 100, 1083.29, 37.2481);opacity:0.68;animation-play-state:paused" ><path d="M4.736025 0 C4.736025 1.1229749999999998 4.916707604996847 1.5419626221851692 4.355220104996847 2.514487499999999 S3.34053737781483 3.540030462958195 2.3680125000000003 4.101517962958195 S1.122975 5.028974999999999 3.0793590683710295e-16 5.028974999999999 S-1.395487622185169 4.663005462958196 -2.368012499999999 4.101517962958196 S-3.793732604996846 3.487012377814831 -4.355220104996846 2.5144875000000013 S-4.736025 1.1229750000000005 -4.736025 5.799957856931843e-16 S-4.916707604996847 -1.541962622185168 -4.355220104996848 -2.514487499999998 S-3.3405373778148317 -3.540030462958195 -2.368012500000002 -4.101517962958195 S-1.1229750000000007 -5.028974999999999 -9.238077205113088e-16 -5.028974999999999 S1.3954876221851664 -4.663005462958197 2.3680124999999967 -4.101517962958198 S3.793732604996845 -3.4870123778148314 4.355220104996845 -2.5144875000000018 S4.736025 -1.122975000000001 4.736025 -1.1599915713863687e-15" fill="#dc3545" stroke-width="0" transform="matrix(1,0,0,1,0,0)" style="transform:matrix(1, 0, 0, 1, 0, 0);animation-play-state:paused" ></path></g>
<g transform="translate(1160.451821750917,-22.602242735278764) scale(100)" opacity="0.6799999999999999" style="transform:matrix(100, 0, 0, 100, 1160.45, -22.6022);opacity:0.68;animation-play-state:paused" ><path d="M5.683229999999998 0 C5.683229999999998 1.3475699999999995 5.900049125996215 1.850355146622203 5.226264125996216 3.0173849999999987 S4.008644853377795 4.248036555549834 2.8416149999999996 4.921821555549833 S1.34757 6.034769999999998 3.695230882045235e-16 6.034769999999998 S-1.6745851466222021 5.595606555549834 -2.841614999999998 4.921821555549834 S-4.552479125996213 4.184414853377797 -5.226264125996214 3.0173850000000013 S-5.683229999999998 1.3475700000000002 -5.683229999999998 6.95994942831821e-16 S-5.900049125996216 -1.8503551466222015 -5.226264125996217 -3.0173849999999973 S-4.008644853377797 -4.248036555549832 -2.841615000000002 -4.921821555549832 S-1.3475700000000006 -6.034769999999998 -1.1085692646135705e-15 -6.034769999999998 S1.674585146622199 -5.595606555549835 2.841614999999995 -4.921821555549836 S4.552479125996213 -4.184414853377797 5.226264125996214 -3.0173850000000018 S5.683229999999998 -1.3475700000000008 5.683229999999998 -1.391989885663642e-15" fill="#dc3545" stroke-width="0" transform="matrix(1,0,0,1,0,0)" style="transform:matrix(1, 0, 0, 1, 0, 0);animation-play-state:paused" ></path></g>
<g transform="translate(1345.6325504512836,-166.24313982939026) scale(100)" opacity="0.6799999999999999" style="transform:matrix(100, 0, 0, 100, 1345.63, -166.243);opacity:0.68;animation-play-state:paused" ><path d="M7.956521999999997 0 C7.956521999999997 1.886597999999999 8.260068776394702 2.590497205271084 7.316769776394702 4.224338999999998 S5.612102794728913 5.9472511777697665 3.9782609999999994 6.890550177769766 S1.8865979999999996 8.448677999999997 5.173323234863329e-16 8.448677999999997 S-2.344419205271083 7.833849177769766 -3.9782609999999967 6.890550177769767 S-6.3734707763947 5.858180794728915 -7.3167697763947 4.224339000000001 S-7.956521999999997 1.886598 -7.956521999999997 9.743929199645493e-16 S-8.260068776394702 -2.590497205271082 -7.316769776394703 -4.224338999999996 S-5.612102794728916 -5.947251177769765 -3.978261000000002 -6.890550177769765 S-1.8865980000000007 -8.448677999999997 -1.5519969704589986e-15 -8.448677999999997 S2.3444192052710786 -7.833849177769768 3.978260999999993 -6.89055017776977 S6.373470776394698 -5.8581807947289155 7.316769776394699 -4.224339000000002 S7.956521999999996 -1.886598000000001 7.956521999999997 -1.9487858399290986e-15" fill="#dc3545" stroke-width="0" transform="matrix(1,0,0,1,0,0)" style="transform:matrix(1, 0, 0, 1, 0, 0);animation-play-state:paused" ></path></g></g></svg>