<svg xmlns="http://www.w3.org/2000/svg" xmlns:xlink="http://www.w3.org/1999/xlink" style="margin:auto;background:#ffffff;display:block;z-index:1;position:relative" width="1802" height="670" preserveAspectRatio="xMidYMid" viewBox="0 0 1802 670">
<g transform=""><g transform="translate(1399.3507663053479,-51.56047873893215) scale(100)" opacity="0.78">
  <path d="M6.117789999999999 0 C6.117789999999999 1.4506099999999997 6.351187888318508 1.991839889016255 5.625882888318508 3.2481049999999994 S4.3151601109837445 4.572856555018401 3.0588950000000006 5.2981615550184005 S1.4506100000000002 6.49621 3.977781391544513e-16 6.49621 S-1.802629889016254 6.0234665550184 -3.0588949999999984 5.2981615550184005 S-4.900577888318506 4.504370110983746 -5.625882888318507 3.248105000000002 S-6.117789999999999 1.4506100000000004 -6.117789999999999 7.492131941355685e-16 S-6.351187888318509 -1.9918398890162534 -5.625882888318509 -3.248104999999998 S-4.315160110983746 -4.572856555018399 -3.0588950000000024 -5.2981615550184 S-1.4506100000000008 -6.49621 -1.1933344174633539e-15 -6.49621 S1.8026298890162509 -6.023466555018402 3.0588949999999957 -5.298161555018403 S4.900577888318505 -4.504370110983746 5.625882888318506 -3.2481050000000025 S6.117789999999999 -1.4506100000000013 6.117789999999999 -1.498426388271137e-15" fill="#dc3545" stroke-width="0">
    <animateTransform attributeName="transform" type="rotate" dur="10s" repeatCount="indefinite" values="0;60"></animateTransform>
  </path>
</g><g transform="translate(1499.0209195664174,-128.87257448671858) scale(100)" opacity="0.78">
  <path d="M7.341347999999999 0 C7.341347999999999 1.7407319999999997 7.6214254659822105 2.390207866819506 6.751059465982211 3.8977259999999996 S5.178192133180493 5.48742786602208 3.6706740000000004 6.35779386602208 S1.7407320000000002 7.795452 4.773337669853416e-16 7.795452 S-2.163155866819505 7.2281598660220805 -3.6706739999999978 6.357793866022081 S-5.880693465982208 5.405244133180496 -6.751059465982209 3.8977260000000027 S-7.341347999999999 1.7407320000000006 -7.341347999999999 8.990558329626821e-16 S-7.621425465982211 -2.3902078668195044 -6.751059465982212 -3.897725999999998 S-5.178192133180495 -5.487427866022078 -3.6706740000000027 -6.357793866022079 S-1.740732000000001 -7.795452 -1.4320013009560248e-15 -7.795452 S2.163155866819501 -7.228159866022082 3.6706739999999947 -6.357793866022083 S5.880693465982207 -5.405244133180497 6.751059465982208 -3.8977260000000036 S7.341347999999999 -1.7407320000000015 7.341347999999999 -1.7981116659253643e-15" fill="#dc3545" stroke-width="0">
    <animateTransform attributeName="transform" type="rotate" dur="5s" repeatCount="indefinite" values="0;60"></animateTransform>
  </path>
</g><g transform="translate(1738.2292873929844,-314.42160428140596) scale(100)" opacity="0.78">
  <path d="M10.277887199999999 0 C10.277887199999999 2.4370247999999997 10.669995652375093 3.3462910135473076 9.451483252375093 5.456816399999998 S7.2494689864526904 7.682399012430912 5.1389436 8.900911412430911 S2.4370248000000005 10.913632799999998 6.682672737794782e-16 10.913632799999998 S-3.028418213547306 10.119423812430913 -5.138943599999997 8.900911412430913 S-8.23297085237509 7.567341786452693 -9.451483252375091 5.456816400000003 S-10.277887199999999 2.437024800000001 -10.277887199999999 1.258678166147755e-15 S-10.669995652375095 -3.3462910135473054 -9.451483252375095 -5.456816399999997 S-7.249468986452694 -7.682399012430911 -5.138943600000004 -8.900911412430911 S-2.437024800000002 -10.913632799999998 -2.0048018213384345e-15 -10.913632799999998 S3.0284182135473006 -10.119423812430915 5.138943599999992 -8.900911412430917 S8.232970852375088 -7.567341786452694 9.45148325237509 -5.456816400000004 S10.277887199999999 -2.4370248000000023 10.277887199999999 -2.51735633229551e-15" fill="#dc3545" stroke-width="0">
    <animateTransform attributeName="transform" type="rotate" dur="3.333333333333333s" repeatCount="indefinite" values="0;60"></animateTransform>
  </path>
</g></g>
</svg>